<svg xmlns="http://www.w3.org/2000/svg" width="100" height="100" viewBox="0 0 100 100">
  <g id="Group_168" data-name="Group 168" transform="translate(-376 -446)">
    <rect id="Rectangle_198" data-name="Rectangle 198" width="100" height="100" transform="translate(376 446)" fill="#1a1f71"/>
    <g id="Group_46" data-name="Group 46" transform="translate(394.973 487.462)">
      <path id="Path_67" data-name="Path 67" d="M26.616,17.424h-5.01L24.737.306h5.01ZM17.392.306,12.616,12.08,12.05,9.545h0l-1.686-7.7S10.161.306,7.989.306H.093L0,.6A20.166,20.166,0,0,1,5.24,2.552L9.593,17.425h5.22L22.784.306ZM56.8,17.424h4.6L57.386.305H53.359a2.287,2.287,0,0,0-2.313,1.276L43.575,17.424H48.8l1.044-2.543H56.21l.587,2.543Zm-5.513-6.055,2.632-6.406L55.4,11.369ZM43.966,4.423,44.681.746A16.026,16.026,0,0,0,40.175,0c-2.486,0-8.39.967-8.39,5.667,0,4.422,6.929,4.477,6.929,6.8s-6.215,1.907-8.267.442L29.7,16.753a15.514,15.514,0,0,0,5.655.967c3.419,0,8.576-1.575,8.576-5.861,0-4.451-6.992-4.865-6.992-6.8s4.88-1.687,7.024-.636Z" transform="translate(0 0)" fill="#fff"/>
    </g>
  </g>
</svg>
