<svg xmlns="http://www.w3.org/2000/svg" width="28.158" height="24.899" viewBox="0 0 28.158 24.899">
  <g id="Group_243" data-name="Group 243" transform="translate(-636.178 -196.252)">
    <g id="Group_240" data-name="Group 240">
      <path id="Path_578" data-name="Path 578" d="M3333.353,1910.426l4.708.928a4.316,4.316,0,0,1,1.783,1.033,7.075,7.075,0,0,1,1.258,2.048l3.072,8.751a1.717,1.717,0,0,0,.522.561,1.981,1.981,0,0,0,.767.232h9.4a2.249,2.249,0,0,0,1-.4,3.026,3.026,0,0,0,.72-.94l2.482-7.53" transform="translate(-2696 -1713)" fill="none" stroke="#1c1c1c" stroke-linecap="round" stroke-width="2"/>
      <path id="Path_579" data-name="Path 579" d="M3346.432,1923.979l-.986,3.54a2.286,2.286,0,0,0,.529,1.621c.615.63,2.247.462,2.247.462l7.909-.544" transform="translate(-2697 -1713)" fill="none" stroke="#1c1c1c" stroke-linecap="round" stroke-width="2"/>
      <path id="Path_580" data-name="Path 580" d="M3341.03,1915.651l15.948,1.825" transform="translate(-2695 -1713)" fill="none" stroke="#1c1c1c" stroke-linecap="round" stroke-width="2"/>
    </g>
    <g id="Path_592" data-name="Path 592" transform="matrix(0.985, 0.174, -0.174, 0.985, 650.276, 217.849)" fill="#fff">
      <path d="M 1 2.5 C 0.7961300015449524 2.5 0.5 2.110440015792847 0.5 1.5 C 0.5 1.192586660385132 0.7658722400665283 0.8659197092056274 1.000055074691772 0.6446242332458496 C 1.233917832374573 0.8656671047210693 1.5 1.192476034164429 1.5 1.5 C 1.5 2.110440015792847 1.203870058059692 2.5 1 2.5 Z" stroke="none"/>
      <path d="M 1 0 C 1 0 2 0.6715700626373291 2 1.5 C 2 2.328429937362671 1.552279949188232 3 1 3 C 0.4477200508117676 3 0 2.328429937362671 0 1.5 C 0 0.6715700626373291 1 0 1 0 Z" stroke="none" fill="#1c1c1c"/>
    </g>
    <g id="Ellipse_99" data-name="Ellipse 99" transform="matrix(0.985, 0.174, -0.174, 0.985, 656.276, 217.849)" fill="#fff" stroke="#1c1c1c" stroke-width="1">
      <ellipse cx="1" cy="1.5" rx="1" ry="1.5" stroke="none"/>
      <ellipse cx="1" cy="1.5" rx="0.5" ry="1" fill="none"/>
    </g>
  </g>
</svg>
